HIERARCHY
ROOT Hips
{
	OFFSET 0.000000 100.481300 0.000000
	CHANNELS 6 Xposition Yposition Zposition Xrotation Yrotation Zrotation
	JOINT Spine
	{
		OFFSET -0.279200 12.230698 -2.892100
		CHANNELS 3 Xrotation Yrotation Zrotation
		JOINT Spine1
		{
			OFFSET -0.325700 14.269203 -3.374200
			CHANNELS 3 Xrotation Yrotation Zrotation
			JOINT Spine2
			{
				OFFSET -0.372300 16.307602 -0.352600
				CHANNELS 3 Xrotation Yrotation Zrotation
				JOINT Neck
				{
					OFFSET -0.418800 17.814194 8.416900
					CHANNELS 3 Xrotation Yrotation Zrotation
					JOINT Head
					{
						OFFSET 0.000000 7.031097 3.806800
						CHANNELS 3 Xrotation Yrotation Zrotation
						JOINT HeadTop_End
						{
							OFFSET 0.000000 24.646606 12.978600
							CHANNELS 3 Xrotation Yrotation Zrotation
							End Site
							{
								OFFSET 0.000000 27.854965 0.000000
							}
						}
					}
				}
				JOINT LeftShoulder
				{
					OFFSET 16.952999 14.495407 -7.737500
					CHANNELS 3 Xrotation Yrotation Zrotation
					JOINT LeftArm
					{
						OFFSET 9.308998 -2.777710 0.208600
						CHANNELS 3 Xrotation Yrotation Zrotation
						JOINT LeftForeArm
						{
							OFFSET 29.972298 0.000000 0.000000
							CHANNELS 3 Xrotation Yrotation Zrotation
							JOINT LeftHand
							{
								OFFSET 26.026505 0.000000 0.000000
								CHANNELS 3 Xrotation Yrotation Zrotation
								JOINT LeftHandThumb1
								{
									OFFSET 12.240501 -7.147949 9.207150
									CHANNELS 3 Xrotation Yrotation Zrotation
									JOINT LeftHandThumb2
									{
										OFFSET 4.138618 -2.389435 2.389433
										CHANNELS 3 Xrotation Yrotation Zrotation
										JOINT LeftHandThumb3
										{
											OFFSET 2.726913 -1.574387 1.574386
											CHANNELS 3 Xrotation Yrotation Zrotation
											JOINT LeftHandThumb4
											{
												OFFSET 3.941010 -2.275345 2.275342
												CHANNELS 3 Xrotation Yrotation Zrotation
												End Site
												{
													OFFSET -0.005798 5.087799 0.009903
												}
											}
										}
									}
								}
								JOINT LeftHandIndex1
								{
									OFFSET 24.424698 -1.985611 5.953459
									CHANNELS 3 Xrotation Yrotation Zrotation
									JOINT LeftHandIndex2
									{
										OFFSET 6.426697 0.000000 0.000000
										CHANNELS 3 Xrotation Yrotation Zrotation
										JOINT LeftHandIndex3
										{
											OFFSET 5.337898 0.000000 0.000000
											CHANNELS 3 Xrotation Yrotation Zrotation
											JOINT LeftHandIndex4
											{
												OFFSET 4.409401 0.000000 0.000000
												CHANNELS 3 Xrotation Yrotation Zrotation
												End Site
												{
													OFFSET 0.000000 4.409363 0.014373
												}
											}
										}
									}
								}
								JOINT LeftHandMiddle1
								{
									OFFSET 23.810104 0.000000 0.000000
									CHANNELS 3 Xrotation Yrotation Zrotation
									JOINT LeftHandMiddle2
									{
										OFFSET 7.176498 0.000000 0.000000
										CHANNELS 3 Xrotation Yrotation Zrotation
										JOINT LeftHandMiddle3
										{
											OFFSET 6.774902 0.000000 0.000000
											CHANNELS 3 Xrotation Yrotation Zrotation
											JOINT LeftHandMiddle4
											{
												OFFSET 5.403328 0.000000 0.000000
												CHANNELS 3 Xrotation Yrotation Zrotation
												End Site
												{
													OFFSET -0.027702 5.403244 0.017414
												}
											}
										}
									}
								}
								JOINT LeftHandRing1
								{
									OFFSET 22.908401 -0.839279 -6.020567
									CHANNELS 3 Xrotation Yrotation Zrotation
									JOINT LeftHandRing2
									{
										OFFSET 6.337502 0.000000 0.000000
										CHANNELS 3 Xrotation Yrotation Zrotation
										JOINT LeftHandRing3
										{
											OFFSET 5.779297 0.000000 0.000000
											CHANNELS 3 Xrotation Yrotation Zrotation
											JOINT LeftHandRing4
											{
												OFFSET 4.965698 0.000000 0.000000
												CHANNELS 3 Xrotation Yrotation Zrotation
												End Site
												{
													OFFSET 0.000000 4.965668 0.016186
												}
											}
										}
									}
								}
								JOINT LeftHandPinky1
								{
									OFFSET 20.037003 -1.530319 -10.950146
									CHANNELS 3 Xrotation Yrotation Zrotation
									JOINT LeftHandPinky2
									{
										OFFSET 5.254700 0.000000 0.000000
										CHANNELS 3 Xrotation Yrotation Zrotation
										JOINT LeftHandPinky3
										{
											OFFSET 4.810204 0.000000 0.000000
											CHANNELS 3 Xrotation Yrotation Zrotation
											JOINT LeftHandPinky4
											{
												OFFSET 3.647202 0.000000 0.000000
												CHANNELS 3 Xrotation Yrotation Zrotation
												End Site
												{
													OFFSET 0.000000 3.647186 0.011889
												}
											}
										}
									}
								}
							}
						}
					}
				}
				JOINT RightShoulder
				{
					OFFSET -15.141001 14.495407 -7.737500
					CHANNELS 3 Xrotation Yrotation Zrotation
					JOINT RightArm
					{
						OFFSET -9.308998 -2.777710 0.208500
						CHANNELS 3 Xrotation Yrotation Zrotation
						JOINT RightForeArm
						{
							OFFSET -29.972300 0.000000 0.000000
							CHANNELS 3 Xrotation Yrotation Zrotation
							JOINT RightHand
							{
								OFFSET -26.026505 0.000000 0.000000
								CHANNELS 3 Xrotation Yrotation Zrotation
								JOINT RightHandThumb1
								{
									OFFSET -12.240601 -7.148026 9.207092
									CHANNELS 3 Xrotation Yrotation Zrotation
									JOINT RightHandThumb2
									{
										OFFSET -4.138618 -2.389435 2.389433
										CHANNELS 3 Xrotation Yrotation Zrotation
										JOINT RightHandThumb3
										{
											OFFSET -2.726974 -1.574417 1.574421
											CHANNELS 3 Xrotation Yrotation Zrotation
											JOINT RightHandThumb4
											{
												OFFSET -3.941010 -2.275345 2.275343
												CHANNELS 3 Xrotation Yrotation Zrotation
												End Site
												{
													OFFSET 0.005814 5.087799 0.009927
												}
											}
										}
									}
								}
								JOINT RightHandIndex1
								{
									OFFSET -24.424698 -1.985657 5.953444
									CHANNELS 3 Xrotation Yrotation Zrotation
									JOINT RightHandIndex2
									{
										OFFSET -6.426697 0.000000 0.000000
										CHANNELS 3 Xrotation Yrotation Zrotation
										JOINT RightHandIndex3
										{
											OFFSET -5.337898 0.000000 0.000000
											CHANNELS 3 Xrotation Yrotation Zrotation
											JOINT RightHandIndex4
											{
												OFFSET -4.409401 0.000000 0.000000
												CHANNELS 3 Xrotation Yrotation Zrotation
												End Site
												{
													OFFSET 0.000000 4.409363 0.014408
												}
											}
										}
									}
								}
								JOINT RightHandMiddle1
								{
									OFFSET -23.810097 0.000000 0.000000
									CHANNELS 3 Xrotation Yrotation Zrotation
									JOINT RightHandMiddle2
									{
										OFFSET -7.176498 0.000000 0.000000
										CHANNELS 3 Xrotation Yrotation Zrotation
										JOINT RightHandMiddle3
										{
											OFFSET -6.774902 0.000000 0.000000
											CHANNELS 3 Xrotation Yrotation Zrotation
											JOINT RightHandMiddle4
											{
												OFFSET -5.403328 0.000000 0.000000
												CHANNELS 3 Xrotation Yrotation Zrotation
												End Site
												{
													OFFSET 0.027702 5.403244 0.017457
												}
											}
										}
									}
								}
								JOINT RightHandRing1
								{
									OFFSET -22.908302 -0.839325 -6.020576
									CHANNELS 3 Xrotation Yrotation Zrotation
									JOINT RightHandRing2
									{
										OFFSET -6.337502 0.000000 0.000000
										CHANNELS 3 Xrotation Yrotation Zrotation
										JOINT RightHandRing3
										{
											OFFSET -5.779297 0.000000 0.000000
											CHANNELS 3 Xrotation Yrotation Zrotation
											JOINT RightHandRing4
											{
												OFFSET -4.965698 0.000000 0.000000
												CHANNELS 3 Xrotation Yrotation Zrotation
												End Site
												{
													OFFSET 0.000000 4.965668 0.016226
												}
											}
										}
									}
								}
								JOINT RightHandPinky1
								{
									OFFSET -20.037003 -1.530334 -10.950259
									CHANNELS 3 Xrotation Yrotation Zrotation
									JOINT RightHandPinky2
									{
										OFFSET -5.254700 0.000000 0.000000
										CHANNELS 3 Xrotation Yrotation Zrotation
										JOINT RightHandPinky3
										{
											OFFSET -4.810204 0.000000 0.000000
											CHANNELS 3 Xrotation Yrotation Zrotation
											JOINT RightHandPinky4
											{
												OFFSET -3.647202 0.000000 0.000000
												CHANNELS 3 Xrotation Yrotation Zrotation
												End Site
												{
													OFFSET 0.000000 3.647186 0.011917
												}
											}
										}
									}
								}
							}
						}
					}
				}
			}
		}
	}
	JOINT LeftUpLeg
	{
		OFFSET 15.427100 -6.655098 0.678600
		CHANNELS 3 Xrotation Yrotation Zrotation
		JOINT LeftLeg
		{
			OFFSET 4.081073 -39.591068 13.024000
			CHANNELS 3 Xrotation Yrotation Zrotation
			JOINT LeftFoot
			{
				OFFSET -4.081074 -37.707932 -15.979700
				CHANNELS 3 Xrotation Yrotation Zrotation
				JOINT LeftToeBase
				{
					OFFSET 5.346399 -15.068900 20.645000
					CHANNELS 3 Xrotation Yrotation Zrotation
					JOINT LeftToe_End
					{
						OFFSET 2.754700 0.931300 11.300900
						CHANNELS 3 Xrotation Yrotation Zrotation
						End Site
						{
							OFFSET 0.000000 11.669021 0.000000
						}
					}
				}
			}
		}
	}
	JOINT RightUpLeg
	{
		OFFSET -15.569500 -6.655098 0.678600
		CHANNELS 3 Xrotation Yrotation Zrotation
		JOINT RightLeg
		{
			OFFSET -4.081825 -39.591045 13.023800
			CHANNELS 3 Xrotation Yrotation Zrotation
			JOINT RightFoot
			{
				OFFSET 4.081824 -37.707954 -15.979600
				CHANNELS 3 Xrotation Yrotation Zrotation
				JOINT RightToeBase
				{
					OFFSET -5.346400 -15.068900 20.645000
					CHANNELS 3 Xrotation Yrotation Zrotation
					JOINT RightToe_End
					{
						OFFSET -2.754700 0.931300 11.300900
						CHANNELS 3 Xrotation Yrotation Zrotation
						End Site
						{
							OFFSET 0.000000 11.669021 0.000000
						}
					}
				}
			}
		}
	}
}
MOTION
Frames: 4
Frame Time: 0.033333
0.471392 93.183960 6.887411 -6.891903 6.053917 2.010801 0.472102 -1.213457 -0.276941 0.946562 -2.345897 -0.685984 0.945185 -2.348198 -0.684845 -14.561559 2.260568 1.271261 -39.928692 12.386662 4.277066 0.000001 0.000000 -0.000000 1.187756 -9.109583 10.736613 -88.611043 6.970823 -35.370217 -0.000013 -140.781496 0.000041 -54.814525 3.082598 16.651808 -2.472624 -25.948160 1.473994 7.009083 51.127924 3.267339 1.156562 23.112453 4.437453 0.000001 0.000000 -0.000001 1.951252 4.806620 -44.169843 2.618498 5.406866 -51.655399 0.686971 3.002936 -25.765856 0.000001 -0.000001 -0.000000 2.616988 5.405677 -51.639225 2.620017 5.408067 -51.671556 0.686968 3.002938 -25.765878 -0.000002 0.000000 0.000003 2.974574 5.669129 -55.343766 2.974579 5.669135 -55.343834 0.891549 3.393657 -29.431367 0.000001 0.000000 -0.000001 6.947587 7.997077 -59.668287 3.439149 1.873923 -60.017651 1.167985 3.841739 -33.810106 -0.000000 -0.000001 0.000000 1.726131 22.624518 2.542582 -51.010571 24.664993 0.813684 -0.000018 64.124275 0.000019 -33.665705 13.272048 5.419124 -1.831931 0.015440 -6.029814 4.112470 -26.619897 -5.392484 -2.628719 -18.170598 -9.291397 0.000001 -0.000002 0.000003 6.965725 -6.948217 90.144543 7.009259 -6.947969 90.504514 7.144231 -6.945479 91.620356 -0.000000 0.000001 0.000001 6.965724 -6.948217 90.144543 7.009263 -6.947972 90.504514 7.144228 -6.945485 91.620383 -0.000003 0.000003 0.000003 6.965721 -6.948218 90.144563 7.009261 -6.947980 90.504514 7.144231 -6.945478 91.620356 0.000002 0.000001 -0.000001 6.965725 -6.948217 90.144543 7.009265 -6.947969 90.504508 7.144226 -6.945473 91.620362 0.000001 0.000002 -0.000001 2.461570 6.096725 6.514643 19.866551 8.068070 0.149524 -13.769462 2.511986 -9.504763 -0.291071 0.000005 0.000001 0.000000 -0.000002 -0.000000 6.666772 -7.095293 -10.938055 18.656209 -7.914081 -0.278465 -14.618953 -11.596050 12.617286 -1.888231 0.000000 -0.000000 0.000000 -0.000002 -0.000000 
0.523871 93.213074 7.509429 -7.379383 5.387548 1.689644 0.414370 -1.235687 -0.269960 0.830140 -2.373357 -0.684573 0.828461 -2.375336 -0.683390 -13.819788 2.257962 1.466689 -39.024842 12.574559 4.178846 -0.000002 0.000001 0.000000 1.255392 -9.779887 11.071218 -88.124658 8.020217 -36.250997 0.000029 -140.963275 0.000026 -54.072962 3.172105 16.661639 -2.472627 -25.948162 1.473997 7.009084 51.127927 3.267340 1.156561 23.112455 4.437456 -0.000001 0.000002 0.000001 1.951251 4.806623 -44.169843 2.618496 5.406869 -51.655396 0.686973 3.002934 -25.765857 0.000001 -0.000002 -0.000001 2.616988 5.405676 -51.639222 2.620015 5.408067 -51.671556 0.686962 3.002935 -25.765878 -0.000000 0.000001 0.000001 2.974573 5.669130 -55.343770 2.974581 5.669135 -55.343838 0.891547 3.393655 -29.431367 0.000000 -0.000000 -0.000000 6.947588 7.997076 -59.668287 3.439151 1.873923 -60.017651 1.167986 3.841737 -33.810106 -0.000001 -0.000002 0.000000 1.683883 23.000363 3.984997 -53.486265 24.895970 4.426076 0.000013 60.796299 -0.000015 -35.011362 12.907100 5.862277 -1.832611 -0.707636 -6.141476 3.982989 -28.850070 -5.825575 -2.924336 -20.213789 -9.944015 0.000000 -0.000003 0.000004 6.863997 -6.947725 89.303631 6.913444 -6.948149 89.712499 7.067528 -6.947212 90.986138 -0.000000 -0.000000 0.000000 6.863997 -6.947724 89.303631 6.913450 -6.948153 89.712499 7.067522 -6.947213 90.986138 0.000001 -0.000003 -0.000001 6.863992 -6.947727 89.303624 6.913456 -6.948156 89.712506 7.067520 -6.947210 90.986132 0.000003 0.000001 0.000001 6.863997 -6.947725 89.303631 6.913464 -6.948158 89.712540 7.067510 -6.947203 90.986118 0.000000 -0.000000 0.000000 3.783405 6.504199 6.870090 19.643052 8.369035 0.162372 -14.294473 2.647138 -9.818186 -0.297264 0.000000 -0.000003 -0.000000 0.000002 0.000000 7.853750 -6.624341 -10.581746 18.059158 -7.939593 -0.268463 -14.689353 -11.499434 12.626709 -1.771989 -0.000012 -0.000002 0.000000 -0.000002 -0.000000 
0.522184 93.184967 7.958239 -8.416922 5.002967 1.584022 0.420978 -1.257394 -0.253149 0.845547 -2.400882 -0.652378 0.843726 -2.402705 -0.651085 -13.496771 2.297326 1.429901 -38.871607 12.637356 4.250285 -0.000000 -0.000000 0.000001 1.281427 -10.082083 11.089629 -87.656530 8.841331 -37.202852 0.000011 -141.021359 0.000013 -53.516540 3.145284 16.719799 -2.472624 -25.948160 1.473996 7.009082 51.127921 3.267342 1.156561 23.112452 4.437460 -0.000001 -0.000001 0.000001 1.951251 4.806624 -44.169846 2.618497 5.406867 -51.655402 0.686973 3.002934 -25.765859 -0.000003 0.000001 -0.000002 2.616987 5.405676 -51.639222 2.620016 5.408063 -51.671559 0.686966 3.002934 -25.765874 -0.000000 0.000002 0.000001 2.974574 5.669131 -55.343766 2.974578 5.669133 -55.343831 0.891545 3.393656 -29.431367 -0.000001 -0.000001 -0.000001 6.947588 7.997077 -59.668280 3.439148 1.873922 -60.017651 1.167985 3.841735 -33.810106 0.000000 -0.000001 -0.000000 1.645299 23.447823 4.637017 -53.567299 25.042544 5.794653 0.000039 59.795048 -0.000045 -35.234204 12.029190 5.604410 -1.834790 -1.454790 -6.256941 3.887271 -30.927407 -6.152397 -3.194414 -22.115903 -10.494849 -0.000000 0.000001 0.000001 6.794508 -6.946538 88.729068 6.849985 -6.947515 89.187797 7.023682 -6.947833 90.623674 0.000001 0.000001 0.000000 6.794508 -6.946537 88.729068 6.849986 -6.947515 89.187797 7.023684 -6.947835 90.623674 -0.000002 0.000000 0.000000 6.794498 -6.946545 88.729082 6.849992 -6.947528 89.187777 7.023680 -6.947831 90.623674 -0.000000 -0.000003 -0.000003 6.794508 -6.946538 88.729068 6.849992 -6.947542 89.187825 7.023677 -6.947814 90.623674 0.000001 0.000001 -0.000002 5.439959 6.764603 7.080008 19.466475 8.463485 0.166723 -14.691578 2.732604 -10.032928 -0.295203 0.000003 0.000001 -0.000000 -0.000002 -0.000000 9.445069 -6.398339 -10.374095 17.695734 -8.002093 -0.261241 -14.853727 -11.453977 12.658180 -1.653205 -0.000002 -0.000002 0.000000 -0.000002 -0.000000 
0.482051 92.926529 8.174414 -8.798575 4.663438 1.663529 0.460124 -1.269988 -0.220085 0.930738 -2.432137 -0.563287 0.929046 -2.434028 -0.561798 -13.833947 2.363879 1.155422 -39.220657 12.580671 4.468151 -0.000003 0.000000 -0.000000 1.257515 -9.864690 10.919678 -87.282475 9.259519 -37.735965 0.000012 -141.072052 0.000022 -53.244333 3.037183 16.854276 -2.472625 -25.948165 1.473994 7.009082 51.127917 3.267337 1.156562 23.112453 4.437456 -0.000001 -0.000002 -0.000001 1.951249 4.806624 -44.169843 2.618495 5.406866 -51.655399 0.686975 3.002934 -25.765861 0.000003 0.000001 -0.000002 2.616988 5.405680 -51.639225 2.620016 5.408067 -51.671563 0.686968 3.002935 -25.765873 -0.000000 -0.000000 -0.000003 2.974572 5.669134 -55.343766 2.974578 5.669136 -55.343834 0.891547 3.393653 -29.431367 0.000001 0.000000 0.000001 6.947584 7.997080 -59.668287 3.439148 1.873924 -60.017651 1.167987 3.841736 -33.810106 0.000000 0.000001 0.000000 1.599557 23.589863 4.364095 -51.568003 24.811127 4.710478 0.000007 61.406659 -0.000014 -34.516597 10.917086 5.050168 -1.838283 -2.172497 -6.367918 3.848672 -32.795987 -6.348842 -3.413115 -23.831179 -10.919208 -0.000000 0.000000 0.000004 6.741798 -6.945187 88.293323 6.803340 -6.946742 88.802295 6.997043 -6.948064 90.403428 -0.000001 0.000001 -0.000000 6.741801 -6.945187 88.293323 6.803346 -6.946743 88.802295 6.997040 -6.948067 90.403428 0.000000 -0.000002 -0.000001 6.741791 -6.945185 88.293323 6.803346 -6.946749 88.802295 6.997040 -6.948061 90.403434 0.000003 0.000002 0.000001 6.741801 -6.945187 88.293323 6.803352 -6.946751 88.802295 6.997037 -6.948056 90.403434 0.000001 0.000000 0.000002 5.928052 6.912866 7.076958 19.913901 8.512570 0.157198 -15.172820 2.858242 -10.210428 -0.301395 0.000012 -0.000003 -0.000000 -0.000000 -0.000000 9.581877 -6.648544 -10.620393 18.366836 -7.980268 -0.244527 -15.367926 -10.908170 12.798730 -1.739545 -0.000000 0.000003 0.000000 -0.000000 -0.000000 
